<?xml version="1.0" encoding="iso-8859-1"?>
<!-- Generator: Adobe Illustrator 19.0.0, SVG Export Plug-In . SVG Version: 6.00 Build 0)  -->
<svg version="1.1" id="Layer_1" xmlns="http://www.w3.org/2000/svg" xmlns:xlink="http://www.w3.org/1999/xlink" x="0px" y="0px"
	 viewBox="0 0 496 496" style="enable-background:new 0 0 496 496;" xml:space="preserve">
<path style="fill:#4DB708;" d="M188.8,143.2v39.2c0,4.8,4,8.8,8.8,8.8s8.8-4,8.8-8.8v-39.2H188.8z"/>
<path style="fill:#3F4F51;" d="M92,376c-50.4,0-92-41.6-92-92c0-51.2,41.6-92,92-92c51.2,0,92,41.6,92,92S143.2,376,92,376z
	 M92,217.6c-36.8,0-66.4,29.6-66.4,66.4s29.6,66.4,66.4,66.4s66.4-29.6,66.4-66.4S128.8,217.6,92,217.6z"/>
<path style="fill:#7A8687;" d="M92,352.8c-38.4,0-69.6-31.2-69.6-69.6s31.2-69.6,69.6-69.6s69.6,31.2,69.6,69.6
	S130.4,352.8,92,352.8z M92,221.6c-34.4,0-62.4,28-62.4,62.4s28,62.4,62.4,62.4s62.4-28,62.4-62.4S126.4,221.6,92,221.6z"/>
<g>
	<path style="fill:#98A3A3;" d="M93.6,344.8c0,0.8-0.8,1.6-1.6,1.6l0,0c-0.8,0-1.6-0.8-1.6-1.6V222.4c0-0.8,0.8-1.6,1.6-1.6l0,0
		c0.8,0,1.6,0.8,1.6,1.6V344.8z"/>
	<path style="fill:#98A3A3;" d="M49.6,328c-0.8,0.8-1.6,0.8-1.6,0l0,0c-0.8-0.8-0.8-1.6,0-1.6l86.4-86.4c0.8-0.8,1.6-0.8,1.6,0l0,0
		c0.8,0.8,0.8,1.6,0,1.6L49.6,328z"/>
	<path style="fill:#98A3A3;" d="M31.2,284.8c-0.8,0-1.6-0.8-1.6-1.6l0,0c0-0.8,0.8-1.6,1.6-1.6h122.4c0.8,0,1.6,0.8,1.6,1.6l0,0
		c0,0.8-0.8,1.6-1.6,1.6H31.2z"/>
	<path style="fill:#98A3A3;" d="M48,241.6c-0.8-0.8-0.8-1.6,0-1.6l0,0c0.8-0.8,1.6-0.8,1.6,0l86.4,86.4c0.8,0.8,0.8,1.6,0,1.6l0,0
		c-0.8,0.8-1.6,0.8-1.6,0L48,241.6z"/>
	<path style="fill:#98A3A3;" d="M68.8,340c0,0.8-0.8,0.8-1.6,0.8l0,0c-0.8,0-0.8-0.8-0.8-1.6l48.8-112c0-0.8,0.8-0.8,1.6-0.8l0,0
		c0.8,0,0.8,0.8,0.8,1.6L68.8,340z"/>
	<path style="fill:#98A3A3;" d="M36,307.2c-0.8,0-1.6,0-1.6-0.8l0,0c0-0.8,0-1.6,0.8-1.6L148.8,260c0.8,0,1.6,0,1.6,0.8l0,0
		c0,0.8,0,1.6-0.8,1.6L36,307.2z"/>
	<path style="fill:#98A3A3;" d="M35.2,260.8c-0.8,0-0.8-0.8-0.8-1.6l0,0c0-0.8,0.8-0.8,1.6-0.8l112,48.8c0.8,0,0.8,0.8,0.8,1.6l0,0
		c0,0.8-0.8,0.8-1.6,0.8L35.2,260.8z"/>
	<path style="fill:#98A3A3;" d="M68.8,227.2c0-0.8,0-1.6,0.8-1.6l0,0c0.8,0,1.6,0,1.6,0.8L116,340c0,0.8,0,1.6-0.8,1.6l0,0
		c-0.8,0-1.6,0-1.6-0.8L68.8,227.2z"/>
</g>
<path style="fill:#3F4F51;" d="M412,376c-46.4,0-84-37.6-84-84s37.6-84,84-84s84,37.6,84,84S458.4,376,412,376z M412,232
	c-32.8,0-60,27.2-60,60s27.2,60,60,60s60-27.2,60-60S445.6,232,412,232z"/>
<path style="fill:#7A8687;" d="M412,355.2c-34.4,0-63.2-28-63.2-63.2c0-34.4,28-63.2,63.2-63.2c34.4,0,63.2,28,63.2,63.2
	S447.2,355.2,412,355.2z M412,236c-31.2,0-56,25.6-56,56s25.6,56,56,56c31.2,0,56-25.6,56-56S443.2,236,412,236z"/>
<g>
	<path style="fill:#98A3A3;" d="M413.6,348c0,0.8-0.8,1.6-1.6,1.6l0,0c-0.8,0-1.6-0.8-1.6-1.6V236.8c0-0.8,0.8-1.6,1.6-1.6l0,0
		c0.8,0,1.6,0.8,1.6,1.6V348z"/>
	<path style="fill:#98A3A3;" d="M373.6,332c-0.8,0.8-1.6,0.8-1.6,0l0,0c-0.8-0.8-0.8-1.6,0-1.6l78.4-78.4c0.8-0.8,1.6-0.8,1.6,0l0,0
		c0.8,0.8,0.8,1.6,0,1.6L373.6,332z"/>
	<path style="fill:#98A3A3;" d="M356.8,293.6c-0.8,0-1.6-0.8-1.6-1.6l0,0c0-0.8,0.8-1.6,1.6-1.6H468c0.8,0,1.6,0.8,1.6,1.6l0,0
		c0,0.8-0.8,1.6-1.6,1.6H356.8z"/>
	<path style="fill:#98A3A3;" d="M372,253.6c-0.8-0.8-0.8-1.6,0-1.6l0,0c0.8-0.8,1.6-0.8,1.6,0l78.4,78.4c0.8,0.8,0.8,1.6,0,1.6l0,0
		c-0.8,0.8-1.6,0.8-1.6,0L372,253.6z"/>
	<path style="fill:#98A3A3;" d="M391.2,344c0,0.8-0.8,0.8-1.6,0.8l0,0c-0.8,0-0.8-0.8-0.8-1.6l44-101.6c0-0.8,0.8-0.8,1.6-0.8l0,0
		c0.8,0,0.8,0.8,0.8,1.6L391.2,344z"/>
	<path style="fill:#98A3A3;" d="M360.8,313.6c-0.8,0-1.6,0-1.6-0.8l0,0c0-0.8,0-1.6,0.8-1.6l103.2-40.8c0.8,0,1.6,0,1.6,0.8l0,0
		c0,0.8,0,1.6-0.8,1.6L360.8,313.6z"/>
	<path style="fill:#98A3A3;" d="M360.8,271.2c-0.8,0-0.8-0.8-0.8-1.6l0,0c0-0.8,0.8-0.8,1.6-0.8l102.4,44c0.8,0,0.8,0.8,0.8,1.6l0,0
		c0,0.8-0.8,0.8-1.6,0.8L360.8,271.2z"/>
	<path style="fill:#98A3A3;" d="M390.4,240.8c0-0.8,0-1.6,0.8-1.6l0,0c0.8,0,1.6,0,1.6,0.8l40.8,103.2c0,0.8,0,1.6-0.8,1.6l0,0
		c-0.8,0-1.6,0-1.6-0.8L390.4,240.8z"/>
</g>
<g>
	<path style="fill:#4DB708;" d="M249.6,284c0,4.8-4,8.8-8.8,8.8H94.4c-4.8,0-8.8-4-8.8-8.8l0,0c0-4.8,4-8.8,8.8-8.8H240
		C245.6,275.2,249.6,279.2,249.6,284L249.6,284z"/>
	<path style="fill:#4DB708;" d="M201.6,174.4c3.2,3.2,3.2,9.6,0,12.8L98.4,290.4c-3.2,3.2-9.6,3.2-12.8,0l0,0
		c-3.2-3.2-3.2-9.6,0-12.8l103.2-103.2C192,171.2,198.4,171.2,201.6,174.4L201.6,174.4z"/>
	<path style="fill:#4DB708;" d="M353.6,174.4c3.2,3.2,3.2,9.6,0,12.8L250.4,290.4c-3.2,3.2-9.6,3.2-12.8,0l0,0
		c-3.2-3.2-3.2-9.6,0-12.8l103.2-103.2C344.8,171.2,350.4,171.2,353.6,174.4L353.6,174.4z"/>
</g>
<circle style="fill:#3E9306;" cx="91.2" cy="283.2" r="3.2"/>
<g>
	<path style="fill:#4DB708;" d="M406.4,291.2c-4.8,2.4-9.6,0.8-12-4l-67.2-129.6c-2.4-4.8-0.8-9.6,4-12l0,0c4.8-2.4,9.6-0.8,12,4
		l67.2,129.6C412,283.2,410.4,288.8,406.4,291.2L406.4,291.2z"/>
	<path style="fill:#4DB708;" d="M247.2,287.2c-4.8,1.6-9.6-1.6-11.2-6.4l-44-91.2c-1.6-4.8,1.6-9.6,6.4-11.2l0,0
		c4.8-1.6,9.6,1.6,11.2,6.4l44,91.2C254.4,280.8,252,285.6,247.2,287.2L247.2,287.2z"/>
</g>
<path style="fill:#3E9904;" d="M197.6,178.4c4.8-1.6,9.6,1.6,11.2,6.4l44,91.2c1.6,4.8-1.6,9.6-6.4,11.2l0,0
	c-4.8,1.6-9.6-1.6-11.2-6.4"/>
<path style="fill:#D38E4A;" d="M253.6,137.6c0,9.6-73.6,17.6-84,17.6s-17.6-8-17.6-17.6s8-17.6,17.6-17.6S253.6,128,253.6,137.6z"/>
<path style="fill:#AF6E35;" d="M253.6,137.6c0,9.6-73.6,17.6-84,17.6s-17.6-8-17.6-17.6"/>
<circle style="fill:#97A0A0;" cx="244.8" cy="280.8" r="25.6"/>
<path style="fill:#7A8687;" d="M263.2,262.4c10.4,10.4,10.4,26.4,0,36c-10.4,10.4-26.4,10.4-36,0"/>
<path style="fill:#4DB708;" d="M350.4,181.6c0,4.8-4,8.8-8.8,8.8H196c-4.8,0-8.8-4-8.8-8.8l0,0c0-4.8,4-8.8,8.8-8.8h145.6
	C346.4,172,350.4,176,350.4,181.6L350.4,181.6z"/>
<path style="fill:#929FA0;" d="M404.8,148c0,4.8-4,8.8-8.8,8.8h-65.6c-4.8,0-8.8-4-8.8-8.8v-5.6c0-4.8,4-8.8,8.8-8.8H396
	c4.8,0,8.8,4,8.8,8.8V148z"/>
<path style="fill:#7A8687;" d="M396,134.4c4.8,0,8.8,4,8.8,8.8v5.6c0,4.8-4,8.8-8.8,8.8h-65.6c-4.8,0-8.8-4-8.8-8.8v-5.6"/>
<g>
	<path style="fill:#3F4F51;" d="M404.8,178.4c0,4.8-4,9.6-9.6,9.6l0,0c-4.8,0-9.6-4-9.6-9.6v-32.8c0-4.8,4-9.6,9.6-9.6l0,0
		c4.8,0,9.6,4,9.6,9.6V178.4z"/>
	<path style="fill:#3F4F51;" d="M248.8,341.6c0,2.4-1.6,4-4,4l0,0c-2.4,0-4-1.6-4-4v-64c0-2.4,1.6-4,4-4l0,0c2.4,0,4,1.6,4,4V341.6z
		"/>
</g>
<path style="fill:#D38E4A;" d="M264,339.2c0,4-3.2,8-8,8h-18.4c-4,0-8-3.2-8-8l0,0c0-4,3.2-8,8-8H256C260,332,264,335.2,264,339.2
	L264,339.2z"/>
<g>
</g>
<g>
</g>
<g>
</g>
<g>
</g>
<g>
</g>
<g>
</g>
<g>
</g>
<g>
</g>
<g>
</g>
<g>
</g>
<g>
</g>
<g>
</g>
<g>
</g>
<g>
</g>
<g>
</g>
</svg>
