<?xml version="1.0" encoding="UTF-8"?> <!-- Generator: Adobe Illustrator 23.0.2, SVG Export Plug-In . SVG Version: 6.00 Build 0) --> <svg xmlns="http://www.w3.org/2000/svg" xmlns:xlink="http://www.w3.org/1999/xlink" id="profile" x="0px" y="0px" viewBox="0 0 380 242" style="enable-background:new 0 0 380 242;" xml:space="preserve"> <style type="text/css"> .st0{opacity:0.1;fill:#222222;} .st1{fill:#1DC28D;} .st2{fill:#009D80;} </style> <g> <ellipse class="st0" cx="48.6" cy="47.6" rx="16.3" ry="1.8"></ellipse> <path class="st1" d="M31.4,15.7c0,0,0,8.3,2.9,11.1s8.6,4.6,10.5,3.2c1.9-1.4,3.3-5.1,1-7.9s-6.7-3.7-9.6-4.2 C33.3,17.5,31.4,15.7,31.4,15.7z"></path> <path class="st1" d="M66.8,21.7c0,0-5.3-2.8-9.1-2.3c-3.8,0.5-6.7,2.3-7.7,5.5s1.1,5.1,3.3,6c2.4,0.9,5.3,0,7.2-3.7 S66.8,21.7,66.8,21.7z"></path> <path class="st2" d="M46.7,46.6c0,0,1,1.8,3.3,0c0,0-1-6.5-1-8.3c0,0-0.5-2.8,0.5-5.1s5.3-6,6.2-6.9c1-0.9,2.9-2.3,1.9-2.3 s-3.3,0.9-5.7,3.2s-4.3,4.6-4.3,4.6s-2.4-4.6-3.8-6c-1.4-1.4-5.3-5.5-6.7-4.6s2.4,2.8,3.3,3.7c1,0.9,5.3,6.9,5.7,8.8 C46.7,35.5,46.7,46.6,46.7,46.6z"></path> </g> <g> <ellipse class="st0" cx="309.5" cy="44.6" rx="16.3" ry="1.8"></ellipse> <path class="st1" d="M326.8,12.7c0,0,0,8.3-2.9,11.1c-2.9,2.8-8.6,4.6-10.5,3.2s-3.3-5.1-1-7.9c2.4-2.8,6.7-3.7,9.6-4.2 C324.9,14.6,326.8,12.7,326.8,12.7z"></path> <path class="st1" d="M291.4,18.8c0,0,5.3-2.8,9.1-2.3c3.8,0.5,6.7,2.3,7.7,5.5c1,3.2-1.1,5.1-3.3,6c-2.4,0.9-5.3,0-7.2-3.7 S291.4,18.8,291.4,18.8z"></path> <path class="st2" d="M311.5,43.7c0,0-1,1.8-3.3,0c0,0,1-6.5,1-8.3c0,0,0.5-2.8-0.5-5.1c-1-2.3-5.3-6-6.2-6.9 c-1-0.9-2.9-2.3-1.9-2.3c1,0,3.3,0.9,5.7,3.2s4.3,4.6,4.3,4.6s2.4-4.6,3.8-6c1.4-1.4,5.3-5.5,6.7-4.6s-2.4,2.8-3.3,3.7 c-1,0.9-5.3,6.9-5.7,8.8C311.5,32.6,311.5,43.7,311.5,43.7z"></path> </g> <g> <ellipse class="st0" cx="93.1" cy="46.8" rx="16.3" ry="1.8"></ellipse> <path class="st1" d="M75.8,14.9c0,0,0,8.3,2.9,11.1s8.6,4.6,10.5,3.2c1.9-1.4,3.3-5.1,1-7.9c-2.4-2.8-6.7-3.7-9.6-4.2 S75.8,14.9,75.8,14.9z"></path> <path class="st1" d="M111.3,20.9c0,0-5.3-2.8-9.1-2.3s-6.7,2.3-7.7,5.5s1.1,5.1,3.3,6c2.4,0.9,5.3,0,7.2-3.7S111.3,20.9,111.3,20.9 z"></path> <path class="st2" d="M91.2,45.9c0,0,1,1.8,3.3,0c0,0-1-6.5-1-8.3c0,0-0.5-2.8,0.5-5.1s5.3-6,6.2-6.9s2.9-2.3,1.9-2.3 s-3.3,0.9-5.7,3.2s-4.3,4.6-4.3,4.6s-2.4-4.6-3.8-6c-1.4-1.4-5.3-5.5-6.7-4.6c-1.4,0.9,2.4,2.8,3.3,3.7s5.3,6.9,5.7,8.8 C91.2,34.8,91.2,45.9,91.2,45.9z"></path> </g> <g> <ellipse class="st0" cx="165.9" cy="46.8" rx="16.3" ry="1.8"></ellipse> <path class="st1" d="M148.7,14.9c0,0,0,8.3,2.9,11.1s8.6,4.6,10.5,3.2s3.3-5.1,1-7.9c-2.4-2.8-6.7-3.7-9.6-4.2 S148.7,14.9,148.7,14.9z"></path> <path class="st1" d="M184.1,20.9c0,0-5.3-2.8-9.1-2.3c-3.8,0.5-6.7,2.3-7.7,5.5s1.1,5.1,3.3,6c2.4,0.9,5.3,0,7.2-3.7 S184.1,20.9,184.1,20.9z"></path> <path class="st2" d="M164,45.9c0,0,1,1.8,3.3,0c0,0-1-6.5-1-8.3c0,0-0.5-2.8,0.5-5.1s5.3-6,6.2-6.9s2.9-2.3,1.9-2.3 s-3.3,0.9-5.7,3.2c-2.4,2.3-4.3,4.6-4.3,4.6s-2.4-4.6-3.8-6c-1.4-1.4-5.3-5.5-6.7-4.6c-1.4,0.9,2.4,2.8,3.3,3.7s5.3,6.9,5.7,8.8 C164,34.8,164,45.9,164,45.9z"></path> </g> <g> <ellipse class="st0" cx="239.3" cy="43" rx="16.3" ry="1.8"></ellipse> <path class="st1" d="M256.5,11.1c0,0,0,8.3-2.9,11.1c-2.9,2.8-8.6,4.6-10.5,3.2s-3.3-5.1-1-7.9c2.4-2.8,6.7-3.7,9.6-4.2 S256.5,11.1,256.5,11.1z"></path> <path class="st1" d="M221.1,17.1c0,0,5.3-2.8,9.1-2.3s6.7,2.3,7.7,5.5s-1.1,5.1-3.3,6c-2.4,0.9-5.3,0-7.2-3.7 S221.1,17.1,221.1,17.1z"></path> <path class="st2" d="M241.2,42.1c0,0-1,1.8-3.3,0c0,0,1-6.5,1-8.3c0,0,0.5-2.8-0.5-5.1s-5.3-6-6.2-6.9c-1-0.9-2.9-2.3-1.9-2.3 s3.3,0.9,5.7,3.2s4.3,4.6,4.3,4.6s2.4-4.6,3.8-6c1.4-1.4,5.3-5.5,6.7-4.6c1.4,0.9-2.4,2.8-3.3,3.7c-1,0.9-5.3,6.9-5.7,8.8 C241.2,31,241.2,42.1,241.2,42.1z"></path> </g> <g> <ellipse class="st0" cx="38.5" cy="105.5" rx="23.1" ry="2.6"></ellipse> <path class="st1" d="M14.1,60.2c0,0,0,11.8,4.1,15.7c4.1,3.9,12.2,6.6,14.9,4.6c2.7-2,4.8-7.2,1.4-11.1c-3.4-3.9-9.5-5.2-13.6-5.9 C16.8,62.9,14.1,60.2,14.1,60.2z"></path> <path class="st1" d="M64.3,68.8c0,0-7.5-3.9-12.9-3.3s-9.5,3.3-10.9,7.9c-1.4,4.6,1.5,7.3,4.8,8.5c3.4,1.3,7.5,0,10.2-5.2 C58.2,71.4,64.3,68.8,64.3,68.8z"></path> <path class="st2" d="M35.8,104.2c0,0,1.4,2.6,4.8,0c0,0-1.4-9.2-1.4-11.8c0,0-0.7-3.9,0.7-7.2c1.4-3.3,7.5-8.5,8.8-9.8 c1.4-1.3,4.1-3.3,2.7-3.3c-1.4,0-4.8,1.3-8.1,4.6c-3.4,3.3-6.1,6.6-6.1,6.6s-3.4-6.6-5.4-8.5s-7.5-7.9-9.5-6.6s3.4,3.9,4.8,5.2 c1.4,1.3,7.5,9.8,8.1,12.5C35.8,88.4,35.8,104.2,35.8,104.2z"></path> </g> <g> <ellipse class="st0" cx="119.4" cy="91.8" rx="23.1" ry="2.6"></ellipse> <path class="st1" d="M143.8,46.6c0,0,0,11.8-4.1,15.7c-4.1,3.9-12.2,6.6-14.9,4.6c-2.7-2-4.8-7.2-1.4-11.1s9.5-5.2,13.6-5.9 S143.8,46.6,143.8,46.6z"></path> <path class="st1" d="M93.5,55.1c0,0,7.5-3.9,12.9-3.3c5.4,0.7,9.5,3.3,10.9,7.9c1.4,4.6-1.5,7.3-4.8,8.5c-3.4,1.3-7.5,0-10.2-5.2 C99.7,57.7,93.5,55.1,93.5,55.1z"></path> <path class="st2" d="M122.1,90.5c0,0-1.4,2.6-4.8,0c0,0,1.4-9.2,1.4-11.8c0,0,0.7-3.9-0.7-7.2c-1.4-3.3-7.5-8.5-8.8-9.8 c-1.4-1.3-4.1-3.3-2.7-3.3s4.8,1.3,8.1,4.6c3.4,3.3,6.1,6.6,6.1,6.6s3.4-6.6,5.4-8.5c2-2,7.5-7.9,9.5-6.6c2,1.3-3.4,3.9-4.8,5.2 c-1.4,1.3-7.5,9.8-8.1,12.5C122.1,74.8,122.1,90.5,122.1,90.5z"></path> </g> <g> <ellipse class="st0" cx="181.8" cy="89.3" rx="23.1" ry="2.6"></ellipse> <path class="st1" d="M157.4,44c0,0,0,11.8,4.1,15.7s12.2,6.6,14.9,4.6c2.7-2,4.8-7.2,1.4-11.1s-9.5-5.2-13.6-5.9 C160.1,46.6,157.4,44,157.4,44z"></path> <path class="st1" d="M207.6,52.5c0,0-7.5-3.9-12.9-3.3c-5.4,0.7-9.5,3.3-10.9,7.9c-1.4,4.6,1.5,7.3,4.8,8.5c3.4,1.3,7.5,0,10.2-5.2 S207.6,52.5,207.6,52.5z"></path> <path class="st2" d="M179.1,87.9c0,0,1.4,2.6,4.8,0c0,0-1.4-9.2-1.4-11.8c0,0-0.7-3.9,0.7-7.2c1.4-3.3,7.5-8.5,8.8-9.8 c1.4-1.3,4.1-3.3,2.7-3.3c-1.4,0-4.8,1.3-8.1,4.6c-3.4,3.3-6.1,6.6-6.1,6.6s-3.4-6.6-5.4-8.5c-2-2-7.5-7.9-9.5-6.6 c-2,1.3,3.4,3.9,4.8,5.2c1.4,1.3,7.5,9.8,8.1,12.5C179.1,72.2,179.1,87.9,179.1,87.9z"></path> </g> <g> <ellipse class="st0" cx="267.6" cy="86.8" rx="23.1" ry="2.6"></ellipse> <path class="st1" d="M243.1,41.6c0,0,0,11.8,4.1,15.7c4.1,3.9,12.2,6.6,14.9,4.6c2.7-2,4.8-7.2,1.4-11.1c-3.4-3.9-9.5-5.2-13.6-5.9 C245.9,44.2,243.1,41.6,243.1,41.6z"></path> <path class="st1" d="M293.4,50.1c0,0-7.5-3.9-12.9-3.3c-5.4,0.7-9.5,3.3-10.9,7.9s1.5,7.3,4.8,8.5c3.4,1.3,7.5,0,10.2-5.2 C287.3,52.7,293.4,50.1,293.4,50.1z"></path> <path class="st2" d="M264.9,85.5c0,0,1.4,2.6,4.8,0c0,0-1.4-9.2-1.4-11.8c0,0-0.7-3.9,0.7-7.2c1.4-3.3,7.5-8.5,8.8-9.8 c1.4-1.3,4.1-3.3,2.7-3.3c-1.4,0-4.8,1.3-8.1,4.6c-3.4,3.3-6.1,6.6-6.1,6.6s-3.4-6.6-5.4-8.5c-2-2-7.5-7.9-9.5-6.6 c-2,1.3,3.4,3.9,4.8,5.2c1.4,1.3,7.5,9.8,8.1,12.5S264.9,85.5,264.9,85.5z"></path> </g> <g> <ellipse class="st0" cx="340.2" cy="93.8" rx="23.1" ry="2.6"></ellipse> <path class="st1" d="M364.6,48.6c0,0,0,11.8-4.1,15.7c-4.1,3.9-12.2,6.6-14.9,4.6c-2.7-2-4.8-7.2-1.4-11.1s9.5-5.2,13.6-5.9 S364.6,48.6,364.6,48.6z"></path> <path class="st1" d="M314.4,57.1c0,0,7.5-3.9,12.9-3.3c5.4,0.7,9.5,3.3,10.9,7.9c1.4,4.6-1.5,7.3-4.8,8.5c-3.4,1.3-7.5,0-10.2-5.2 C320.5,59.7,314.4,57.1,314.4,57.1z"></path> <path class="st2" d="M342.9,92.5c0,0-1.4,2.6-4.8,0c0,0,1.4-9.2,1.4-11.8c0,0,0.7-3.9-0.7-7.2c-1.4-3.3-7.5-8.5-8.8-9.8 c-1.4-1.3-4.1-3.3-2.7-3.3c1.4,0,4.8,1.3,8.1,4.6c3.4,3.3,6.1,6.6,6.1,6.6s3.4-6.6,5.4-8.5c2-2,7.5-7.9,9.5-6.6 c2,1.3-3.4,3.9-4.8,5.2c-1.4,1.3-7.5,9.8-8.1,12.5S342.9,92.5,342.9,92.5z"></path> </g> <g> <ellipse class="st0" cx="104.7" cy="143.8" rx="31.8" ry="3.6"></ellipse> <path class="st1" d="M71,81.5c0,0,0,16.3,5.6,21.7s16.8,9,20.6,6.3c3.7-2.7,6.5-9.9,1.9-15.4C94.4,88.7,86,86.9,80.3,86 S71,81.5,71,81.5z"></path> <path class="st1" d="M140.2,93.2c0,0-10.3-5.4-17.8-4.5s-13.1,4.5-15,10.8s2.1,10,6.5,11.7c4.7,1.8,10.3,0,14-7.2 C131.8,96.8,140.2,93.2,140.2,93.2z"></path> <path class="st2" d="M100.9,142c0,0,1.9,3.6,6.5,0c0,0-1.9-12.6-1.9-16.3c0,0-0.9-5.4,0.9-9.9c1.9-4.5,10.3-11.7,12.2-13.5 c1.9-1.8,5.6-4.5,3.7-4.5c-1.9,0-6.5,1.8-11.2,6.3c-4.7,4.5-8.4,9-8.4,9s-4.7-9-7.5-11.7c-2.8-2.7-10.3-10.8-13.1-9 c-2.8,1.8,4.7,5.4,6.5,7.2c1.9,1.8,10.3,13.5,11.2,17.2S100.9,142,100.9,142z"></path> </g> <g> <ellipse class="st0" cx="211.9" cy="147.8" rx="31.8" ry="3.6"></ellipse> <path class="st1" d="M245.6,85.5c0,0,0,16.3-5.6,21.7c-5.6,5.4-16.8,9-20.6,6.3c-3.7-2.7-6.5-9.9-1.9-15.4s13.1-7.2,18.7-8.1 C241.8,89.1,245.6,85.5,245.6,85.5z"></path> <path class="st1" d="M176.3,97.3c0,0,10.3-5.4,17.8-4.5c7.5,0.9,13.1,4.5,15,10.8c1.9,6.3-2.1,10-6.5,11.7c-4.7,1.8-10.3,0-14-7.2 C184.8,100.9,176.3,97.3,176.3,97.3z"></path> <path class="st2" d="M215.6,146c0,0-1.9,3.6-6.5,0c0,0,1.9-12.6,1.9-16.3c0,0,0.9-5.4-0.9-9.9c-1.9-4.5-10.3-11.7-12.2-13.5 c-1.9-1.8-5.6-4.5-3.7-4.5s6.5,1.8,11.2,6.3c4.7,4.5,8.4,9,8.4,9s4.7-9,7.5-11.7c2.8-2.7,10.3-10.8,13.1-9c2.8,1.8-4.7,5.4-6.5,7.2 s-10.3,13.5-11.2,17.2S215.6,146,215.6,146z"></path> </g> <g> <ellipse class="st0" cx="299.3" cy="139.9" rx="31.8" ry="3.6"></ellipse> <path class="st1" d="M265.7,77.5c0,0,0,16.3,5.6,21.7c5.6,5.4,16.8,9,20.6,6.3s6.5-9.9,1.9-15.4c-4.7-5.4-13.1-7.2-18.7-8.1 C269.4,81.2,265.7,77.5,265.7,77.5z"></path> <path class="st1" d="M334.9,89.3c0,0-10.3-5.4-17.8-4.5c-7.5,0.9-13.1,4.5-15,10.8s2.1,10,6.5,11.7c4.7,1.8,10.3,0,14-7.2 C326.5,92.9,334.9,89.3,334.9,89.3z"></path> <path class="st2" d="M295.6,138.1c0,0,1.9,3.6,6.5,0c0,0-1.9-12.6-1.9-16.3c0,0-0.9-5.4,0.9-9.9c1.9-4.5,10.3-11.7,12.2-13.5 s5.6-4.5,3.7-4.5s-6.5,1.8-11.2,6.3c-4.7,4.5-8.4,9-8.4,9s-4.7-9-7.5-11.7c-2.8-2.7-10.3-10.8-13.1-9c-2.8,1.8,4.7,5.4,6.5,7.2 s10.3,13.5,11.2,17.2C295.6,116.4,295.6,138.1,295.6,138.1z"></path> </g> <g> <ellipse class="st0" cx="57" cy="215" rx="41" ry="4.7"></ellipse> <path class="st1" d="M100.4,134.8c0,0,0,20.9-7.2,27.9c-7.2,7-21.7,11.6-26.5,8.1c-4.8-3.5-8.4-12.8-2.4-19.8s16.9-9.3,24.1-10.5 C95.6,139.4,100.4,134.8,100.4,134.8z"></path> <path class="st1" d="M11.2,149.9c0,0,13.3-7,22.9-5.8c9.6,1.2,16.9,5.8,19.3,14c2.4,8.1-2.7,12.9-8.4,15.1c-6,2.3-13.3,0-18.1-9.3 S11.2,149.9,11.2,149.9z"></path> <path class="st2" d="M61.8,212.7c0,0-2.4,4.7-8.4,0c0,0,2.4-16.3,2.4-20.9c0,0,1.2-7-1.2-12.8c-2.4-5.8-13.3-15.1-15.7-17.4 s-7.2-5.8-4.8-5.8s8.4,2.3,14.5,8.1c6,5.8,10.8,11.6,10.8,11.6s6-11.6,9.6-15.1c3.6-3.5,13.3-14,16.9-11.6s-6,7-8.4,9.3 c-2.4,2.3-13.3,17.4-14.5,22.1S61.8,212.7,61.8,212.7z"></path> </g> <g> <ellipse class="st0" cx="186.2" cy="211.8" rx="41" ry="4.7"></ellipse> <path class="st1" d="M142.8,131.5c0,0,0,20.9,7.2,27.9s21.7,11.6,26.5,8.1c4.8-3.5,8.4-12.8,2.4-19.8s-16.9-9.3-24.1-10.5 C147.6,136.2,142.8,131.5,142.8,131.5z"></path> <path class="st1" d="M232,146.7c0,0-13.3-7-22.9-5.8c-9.6,1.2-16.9,5.8-19.3,14c-2.4,8.1,2.7,12.9,8.4,15.1c6,2.3,13.3,0,18.1-9.3 C221.1,151.3,232,146.7,232,146.7z"></path> <path class="st2" d="M181.4,209.5c0,0,2.4,4.7,8.4,0c0,0-2.4-16.3-2.4-20.9c0,0-1.2-7,1.2-12.8c2.4-5.8,13.3-15.1,15.7-17.4 c2.4-2.3,7.2-5.8,4.8-5.8s-8.4,2.3-14.5,8.1c-6,5.8-10.8,11.6-10.8,11.6s-6-11.6-9.6-15.1c-3.6-3.5-13.3-14-16.9-11.6s6,7,8.4,9.3 c2.4,2.3,13.3,17.4,14.5,22.1C181.4,181.6,181.4,209.5,181.4,209.5z"></path> </g> <g> <ellipse class="st0" cx="309.6" cy="211.8" rx="41" ry="4.7"></ellipse> <path class="st1" d="M352.9,131.5c0,0,0,20.9-7.2,27.9c-7.2,7-21.7,11.6-26.5,8.1c-4.8-3.5-8.4-12.8-2.4-19.8s16.9-9.3,24.1-10.5 C348.1,136.2,352.9,131.5,352.9,131.5z"></path> <path class="st1" d="M263.8,146.7c0,0,13.3-7,22.9-5.8c9.6,1.2,16.9,5.8,19.3,14c2.4,8.1-2.7,12.9-8.4,15.1c-6,2.3-13.3,0-18.1-9.3 S263.8,146.7,263.8,146.7z"></path> <path class="st2" d="M314.4,209.5c0,0-2.4,4.7-8.4,0c0,0,2.4-16.3,2.4-20.9c0,0,1.2-7-1.2-12.8c-2.4-5.8-13.3-15.1-15.7-17.4 s-7.2-5.8-4.8-5.8c2.4,0,8.4,2.3,14.5,8.1c6,5.8,10.8,11.6,10.8,11.6s6-11.6,9.6-15.1c3.6-3.5,13.3-14,16.9-11.6 c3.6,2.3-6,7-8.4,9.3s-13.3,17.4-14.5,22.1S314.4,209.5,314.4,209.5z"></path> </g> </svg> 