<?xml version="1.0" encoding="iso-8859-1"?>
<!-- Generator: Adobe Illustrator 19.0.0, SVG Export Plug-In . SVG Version: 6.00 Build 0)  -->
<svg version="1.1" id="Layer_1" xmlns="http://www.w3.org/2000/svg" xmlns:xlink="http://www.w3.org/1999/xlink" x="0px" y="0px"
	 viewBox="0 0 512 512" style="enable-background:new 0 0 512 512;" xml:space="preserve">
<circle style="fill:#9BDC6E;" cx="256" cy="256" r="232"/>
<circle style="fill:#EFF2FA;" cx="256" cy="256" r="153"/>
<path style="fill:#9BDC6E;" d="M96.629,163.987l-55.433-32.004C20.088,168.465,8,210.82,8,256h64
	C72,222.479,80.968,191.055,96.629,163.987z"/>
<path style="fill:#EFF2FA;" d="M163.987,96.629l-32.004-55.434C94.35,62.971,62.971,94.35,41.196,131.983l55.433,32.004
	C112.785,136.065,136.065,112.785,163.987,96.629z"/>
<path style="fill:#9BDC6E;" d="M256,72V8c-45.18,0-87.535,12.087-124.017,33.196l32.004,55.434C191.055,80.969,222.479,72,256,72z"
	/>
<path style="fill:#EFF2FA;" d="M440,256h64c0-45.18-12.087-87.535-33.196-124.017l-55.433,32.004
	C431.032,191.055,440,222.479,440,256z"/>
<path style="fill:#9BDC6E;" d="M415.371,163.987l55.433-32.004c-21.774-37.633-53.153-69.012-90.787-90.787l-32.004,55.433
	C375.935,112.785,399.215,136.065,415.371,163.987z"/>
<g>
	<path style="fill:#EFF2FA;" d="M348.013,96.629l32.004-55.433C343.535,20.088,301.18,8,256,8v64
		C289.521,72,320.945,80.969,348.013,96.629z"/>
	<path style="fill:#EFF2FA;" d="M72,256H8c0,45.18,12.088,87.535,33.196,124.018l55.433-32.005C80.968,320.945,72,289.521,72,256z"
		/>
	<path style="fill:#EFF2FA;" d="M348.013,415.371l32.004,55.433c37.633-21.774,69.012-53.153,90.787-90.786l-55.433-32.005
		C399.215,375.935,375.935,399.215,348.013,415.371z"/>
</g>
<g>
	<path style="fill:#9BDC6E;" d="M96.629,348.013l-55.433,32.005c21.774,37.633,53.153,69.012,90.787,90.786l32.004-55.433
		C136.065,399.215,112.785,375.935,96.629,348.013z"/>
	<path style="fill:#9BDC6E;" d="M440,256c0,33.521-8.968,64.945-24.629,92.013l55.433,32.005C491.913,343.535,504,301.18,504,256
		H440z"/>
	<path style="fill:#9BDC6E;" d="M256,440v64c45.18,0,87.535-12.088,124.017-33.196l-32.004-55.433
		C320.945,431.032,289.521,440,256,440z"/>
</g>
<g>
	<path style="fill:#EFF2FA;" d="M163.987,415.371l-32.004,55.433C168.465,491.913,210.82,504,256,504v-64
		C222.479,440,191.055,431.032,163.987,415.371z"/>
	<path style="fill:#EFF2FA;" d="M397.278,197.661c-5.033-12.173-11.841-23.87-20.236-34.766l-3.429-4.452l23.043-13.303l2.618,3.483
		c8.851,11.781,16.1,24.182,21.544,36.859l1.725,4.015l-23.121,13.349L397.278,197.661z"/>
	<path style="fill:#EFF2FA;" d="M395.342,151.578l-14.404,8.315c8.429,10.941,15.532,22.942,20.884,35.889l14.477-8.358
		C410.782,174.575,403.64,162.622,395.342,151.578z"/>
	<path style="fill:#EFF2FA;" d="M349.105,134.958c-10.896-8.396-22.593-15.203-34.766-20.236l-5.185-2.144l13.348-23.121
		l4.015,1.725c12.677,5.444,25.078,12.693,36.859,21.545l3.483,2.617l-13.303,23.043L349.105,134.958z"/>
	<path style="fill:#EFF2FA;" d="M316.218,110.177c12.946,5.353,24.947,12.456,35.888,20.884l8.315-14.403
		c-11.044-8.298-22.997-15.439-35.846-20.958L316.218,110.177z"/>
	<path style="fill:#EFF2FA;" d="M276.119,104.613c-7.658-1.009-14.05-1.479-20.119-1.479s-12.461,0.47-20.119,1.479l-5.56,0.733
		v-26.75l4.335-0.517c7.835-0.936,14.816-1.39,21.344-1.39s13.509,0.454,21.344,1.39l4.335,0.517v26.75L276.119,104.613z"/>
	<path style="fill:#EFF2FA;" d="M235.239,82.962v16.775c6.811-0.897,13.706-1.521,20.761-1.521c7.055,0,13.951,0.624,20.761,1.521
		V82.962c-6.821-0.814-13.724-1.354-20.761-1.354S242.061,82.147,235.239,82.962z"/>
	<path style="fill:#EFF2FA;" d="M406.654,281.679l0.733-5.561c1.009-7.657,1.479-14.05,1.479-20.118s-0.47-12.461-1.479-20.118
		l-0.733-5.561h26.75l0.518,4.335c0.935,7.835,1.389,14.816,1.389,21.344c0,6.529-0.455,13.511-1.39,21.344l-0.518,4.335H406.654z"
		/>
	<path style="fill:#EFF2FA;" d="M413.784,256c0,7.056-0.624,13.951-1.521,20.761h16.775c0.814-6.821,1.354-13.724,1.354-20.761
		s-0.54-13.939-1.354-20.761h-16.775C413.16,242.049,413.784,248.944,413.784,256z"/>
	<path style="fill:#EFF2FA;" d="M78.597,281.679l-0.518-4.335c-0.935-7.833-1.39-14.814-1.39-21.344
		c0-6.527,0.454-13.509,1.39-21.344l0.517-4.335h26.75l-0.733,5.561c-1.009,7.657-1.479,14.05-1.479,20.118
		s0.47,12.461,1.479,20.118l0.733,5.561L78.597,281.679L78.597,281.679z"/>
	<path style="fill:#EFF2FA;" d="M98.216,256c0-7.056,0.624-13.951,1.521-20.761H82.962c-0.814,6.822-1.354,13.725-1.354,20.761
		c0,7.037,0.54,13.939,1.354,20.761h16.775C98.84,269.951,98.216,263.056,98.216,256z"/>
	<path style="fill:#EFF2FA;" d="M145.141,115.344l3.483-2.617c11.781-8.852,24.182-16.101,36.859-21.545l4.015-1.725l13.348,23.121
		l-5.185,2.144c-12.173,5.033-23.87,11.841-34.766,20.236l-4.451,3.429L145.141,115.344z"/>
	<path style="fill:#EFF2FA;" d="M159.894,131.062c10.941-8.429,22.942-15.532,35.888-20.884L187.424,95.7
		c-12.849,5.519-24.802,12.66-35.846,20.958L159.894,131.062z"/>
	<path style="fill:#EFF2FA;" d="M373.614,353.556l3.429-4.451c8.394-10.896,15.203-22.592,20.235-34.766l2.144-5.186l23.121,13.349
		l-1.725,4.015c-5.443,12.675-12.691,25.076-21.544,36.859l-2.618,3.483L373.614,353.556z"/>
	<path style="fill:#EFF2FA;" d="M416.3,324.576l-14.477-8.358c-5.353,12.946-12.455,24.947-20.884,35.888l14.404,8.316
		C403.64,349.378,410.782,337.425,416.3,324.576z"/>
	<path style="fill:#EFF2FA;" d="M256,435.311c-6.527,0-13.509-0.454-21.344-1.389l-4.335-0.518v-26.75l5.56,0.733
		c7.658,1.009,14.05,1.479,20.119,1.479s12.461-0.47,20.119-1.479l5.56-0.733v26.75l-4.335,0.518
		C269.509,434.856,262.527,435.311,256,435.311z"/>
	<path style="fill:#EFF2FA;" d="M276.761,429.039v-16.776c-6.81,0.897-13.705,1.521-20.761,1.521s-13.951-0.624-20.761-1.521v16.776
		c6.822,0.814,13.725,1.354,20.761,1.354S269.939,429.853,276.761,429.039z"/>
	<path style="fill:#EFF2FA;" d="M309.154,399.422l5.185-2.144c12.173-5.033,23.87-11.842,34.766-20.236l4.451-3.429l13.303,23.042
		l-3.483,2.618c-11.781,8.852-24.183,16.101-36.859,21.545l-4.015,1.725L309.154,399.422z"/>
	<path style="fill:#EFF2FA;" d="M352.106,380.938c-10.941,8.429-22.942,15.532-35.888,20.884l8.358,14.477
		c12.849-5.518,24.802-12.66,35.846-20.958L352.106,380.938z"/>
	<path style="fill:#EFF2FA;" d="M185.483,420.818c-12.676-5.444-25.078-12.693-36.859-21.545l-3.483-2.618l13.303-23.042
		l4.451,3.429c10.896,8.394,22.593,15.203,34.766,20.236l5.185,2.144l-13.348,23.121L185.483,420.818z"/>
	<path style="fill:#EFF2FA;" d="M195.782,401.823c-12.946-5.352-24.947-12.456-35.888-20.884l-8.315,14.403
		c11.044,8.298,22.997,15.44,35.846,20.958L195.782,401.823z"/>
	<path style="fill:#EFF2FA;" d="M112.726,363.375c-8.853-11.783-16.102-24.184-21.544-36.859l-1.725-4.015l23.121-13.349
		l2.144,5.186c5.033,12.173,11.841,23.87,20.235,34.766l3.429,4.451l-23.042,13.303L112.726,363.375z"/>
	<path style="fill:#EFF2FA;" d="M131.062,352.106c-8.429-10.941-15.532-22.942-20.884-35.888L95.7,324.576
		c5.518,12.849,12.66,24.802,20.958,35.846L131.062,352.106z"/>
	<path style="fill:#EFF2FA;" d="M89.457,189.498l1.725-4.015c5.444-12.677,12.693-25.078,21.544-36.859l2.618-3.483l23.043,13.303
		l-3.429,4.452c-8.395,10.896-15.203,22.592-20.236,34.766l-2.144,5.186L89.457,189.498z"/>
	<path style="fill:#EFF2FA;" d="M95.7,187.424l14.477,8.358c5.352-12.946,12.456-24.947,20.884-35.889l-14.403-8.315
		C108.36,162.622,101.218,174.575,95.7,187.424z"/>
</g>
<path style="fill:#9BDC6E;" d="M256,240c-21.684,0-40-12.824-40-28s18.316-28,40-28c18.031,0,34.363,9.004,38.832,21.41
	c0.777,2.148,1.168,4.367,1.168,6.59c0,8.836,7.164,16,16,16s16-7.164,16-16c0-5.934-1.031-11.797-3.063-17.438
	c-7.595-21.081-27.975-36.265-52.938-40.92V152c0-8.836-7.164-16-16-16s-16,7.164-16,16v1.545c-32.014,6.086-56,29.957-56,58.455
	c0,33.086,32.301,60,72,60c21.684,0,40,12.824,40,28s-18.316,28-40,28s-40-12.824-40-28c0-8.836-7.164-16-16-16s-16,7.164-16,16
	c0,28.498,23.986,52.369,56,58.455V360c0,8.836,7.164,16,16,16s16-7.164,16-16v-1.545c32.014-6.086,56-29.957,56-58.455
	C328,266.914,295.699,240,256,240z"/>
<g>
	<path style="fill:#2D2B29;" d="M362.101,158.641c1.578,1.719,3.733,2.59,5.895,2.59c1.933,0,3.872-0.697,5.408-2.106
		c3.255-2.988,3.471-8.049,0.483-11.304c-3.086-3.361-6.354-6.629-9.714-9.713c-3.254-2.987-8.315-2.772-11.303,0.484
		c-2.988,3.255-2.771,8.315,0.484,11.303C356.379,152.671,359.322,155.614,362.101,158.641z"/>
	<path style="fill:#2D2B29;" d="M112,256c0-79.402,64.598-144,144-144c23.799,0,47.377,5.925,68.187,17.134
		c3.89,2.094,8.742,0.641,10.837-3.249c2.095-3.891,0.64-8.742-3.25-10.838C308.641,102.586,282.439,96,256,96
		c-88.224,0-160,71.776-160,160c0,36.744,12.766,72.633,35.947,101.056c1.582,1.939,3.883,2.944,6.205,2.944
		c1.777,0,3.566-0.59,5.051-1.801c3.424-2.792,3.936-7.832,1.144-11.256C123.487,321.368,112,289.07,112,256z"/>
	<path style="fill:#2D2B29;" d="M396.937,180.196c-2.096-3.889-6.949-5.343-10.838-3.247c-3.889,2.096-5.343,6.947-3.247,10.837
		C394.07,208.602,400,232.19,400,256c0,79.402-64.598,144-144,144c-33.071,0-65.37-11.488-90.946-32.349
		c-3.423-2.791-8.463-2.28-11.256,1.144c-2.792,3.424-2.281,8.463,1.144,11.256C183.365,403.233,219.254,416,256,416
		c88.224,0,160-71.776,160-160C416,229.549,409.408,203.336,396.937,180.196z"/>
	<path style="fill:#2D2B29;" d="M477.728,127.977c-22.469-38.834-54.872-71.236-93.705-93.705C345.273,11.852,301.003,0,256,0
		c-45.004,0-89.274,11.852-128.023,34.271C89.144,56.74,56.741,89.143,34.272,127.977C11.851,166.726,0,210.996,0,256
		s11.851,89.274,34.272,128.023c22.469,38.834,54.872,71.236,93.705,93.704C166.726,500.149,210.996,512,256,512
		c45.003,0,89.273-11.851,128.023-34.272c38.833-22.468,71.236-54.87,93.705-93.704C500.149,345.274,512,301.004,512,256
		S500.149,166.726,477.728,127.977z M408.446,344.007c-15.452,26.705-37.734,48.988-64.44,64.439
		C317.375,423.855,286.942,432,256,432s-61.375-8.145-88.006-23.554c-26.706-15.452-48.989-37.735-64.44-64.439
		C88.145,317.375,80,286.942,80,256s8.145-61.374,23.554-88.006c15.451-26.705,37.734-48.988,64.44-64.44
		C194.625,88.145,225.058,80,256,80s61.375,8.145,88.006,23.554c26.706,15.452,48.989,37.735,64.44,64.44
		C423.855,194.626,432,225.058,432,256S423.855,317.375,408.446,344.007z M426.159,166.997l16.448-9.497l25.158-14.525
		c17.245,32.27,26.879,68.275,28.102,105.025h-48.033C446.656,219.696,439.24,191.983,426.159,166.997z M459.753,129.125
		l-26.337,15.206l-15.268,8.814c-15.159-23.847-35.445-44.134-59.294-59.293l8.815-15.268l15.206-26.337
		C413.983,71.662,440.339,98.016,459.753,129.125z M345.003,85.841C320.017,72.761,292.304,65.344,264,64.167V16.133
		c36.75,1.223,72.754,10.856,105.025,28.102L345.003,85.841z M248,16.133v48.033c-28.304,1.178-56.017,8.594-81.003,21.675
		l-24.021-41.606C175.246,26.99,211.25,17.356,248,16.133z M129.125,52.247l15.206,26.337l8.815,15.268
		c-23.849,15.16-44.135,35.447-59.294,59.293l-37.224-21.491l-4.381-2.529C71.662,98.016,98.017,71.662,129.125,52.247z
		 M44.235,142.975L69.393,157.5l16.448,9.497C72.76,191.983,65.344,219.696,64.167,248H16.133
		C17.356,211.25,26.99,175.245,44.235,142.975z M64.167,264c1.178,28.304,8.594,56.017,21.675,81.003L69.393,354.5l-25.158,14.525
		C26.99,336.755,17.356,300.75,16.133,264H64.167z M52.247,382.875l4.381-2.529l37.224-21.492
		c15.159,23.849,35.445,44.135,59.294,59.295l-8.815,15.268l-15.206,26.337C98.017,440.338,71.662,413.985,52.247,382.875z
		 M166.997,426.159c24.987,13.081,52.699,20.497,81.003,21.675v48.033c-36.75-1.224-72.754-10.856-105.025-28.102L166.997,426.159z
		 M264,495.867v-48.033c28.304-1.178,56.017-8.594,81.003-21.675l24.021,41.606C336.754,485.011,300.75,494.644,264,495.867z
		 M382.875,459.753l-15.206-26.337l-8.815-15.268c23.848-15.159,44.135-35.446,59.294-59.295l15.268,8.815l26.337,15.206
		C440.339,413.985,413.983,440.338,382.875,459.753z M467.765,369.025L442.607,354.5l-16.448-9.497
		c13.081-24.987,20.497-52.699,21.675-81.003h48.033C494.644,300.75,485.01,336.755,467.765,369.025z"/>
	<path style="fill:#2D2B29;" d="M256,192c14.537,0,27.995,6.931,31.309,16.132C287.768,209.399,288,210.7,288,212
		c0,13.234,10.766,24,24,24s24-10.766,24-24c0-6.854-1.189-13.633-3.536-20.148c-7.872-21.851-27.438-38.259-52.966-44.748
		C277.231,136.21,267.556,128,256,128c-11.533,0-21.191,8.177-23.484,19.038c-14.871,3.895-28.288,11.494-38.259,21.755
		C182.484,180.911,176,196.255,176,212c0,37.495,35.888,68,80,68c18.315,0,32,10.56,32,20c0,9.441-13.685,20-32,20s-32-10.559-32-20
		c0-13.234-10.766-24-24-24s-24,10.766-24,24c0,15.745,6.484,31.089,18.257,43.207c9.971,10.262,23.388,17.86,38.259,21.755
		C234.809,375.823,244.467,384,256,384c11.533,0,21.191-8.177,23.484-19.038c14.871-3.895,28.288-11.494,38.259-21.755
		C329.516,331.089,336,315.745,336,300c0-37.495-35.888-68-80-68c-18.315,0-32-10.559-32-20C224,202.56,237.685,192,256,192z
		 M256,248c35.29,0,64,23.327,64,52c0,23.865-20.815,45.144-49.494,50.596c-3.774,0.718-6.506,4.017-6.506,7.859V360
		c0,4.411-3.589,8-8,8s-8-3.589-8-8v-1.545c0-3.842-2.731-7.142-6.506-7.859C212.815,345.144,192,323.865,192,300
		c0-4.411,3.589-8,8-8s8,3.589,8,8c0,19.851,21.533,36,48,36s48-16.149,48-36s-21.533-36-48-36c-35.29,0-64-23.327-64-52
		c0-23.865,20.815-45.144,49.494-50.596c3.774-0.718,6.506-4.017,6.506-7.859V152c0-4.411,3.589-8,8-8c4.411,0,8,3.589,8,8v1.642
		c0,3.853,2.746,7.159,6.533,7.865c22.477,4.192,40.439,17.897,46.877,35.766c1.719,4.771,2.59,9.726,2.59,14.727
		c0,4.411-3.589,8-8,8s-8-3.589-8-8c0-3.162-0.554-6.294-1.641-9.301C296.696,186.979,277.633,176,256,176
		c-26.467,0-48,16.149-48,36S229.533,248,256,248z"/>
</g>
<g>
</g>
<g>
</g>
<g>
</g>
<g>
</g>
<g>
</g>
<g>
</g>
<g>
</g>
<g>
</g>
<g>
</g>
<g>
</g>
<g>
</g>
<g>
</g>
<g>
</g>
<g>
</g>
<g>
</g>
</svg>
